<?xml version="1.0" encoding="utf-8"?>
<!-- Generator: Adobe Illustrator 26.3.1, SVG Export Plug-In . SVG Version: 6.00 Build 0)  -->
<svg version="1.1" id="Layer_1" xmlns="http://www.w3.org/2000/svg" xmlns:xlink="http://www.w3.org/1999/xlink" x="0px" y="0px"
	 viewBox="0 0 500 500" style="enable-background:new 0 0 500 500;" xml:space="preserve">
<style type="text/css">
	.st0{fill:#D1D3D4;}
	.st1{fill:#FFFFFF;}
	.st2{fill:#231F20;}
	.st3{fill:#68E1FD;}
</style>
<g id="Shadow">
	<ellipse class="st0" cx="241.1" cy="393.5" rx="145.3" ry="9.3"/>
</g>
<g id="Character">
	<path class="st1" d="M264.4,246.9c2.9-1.7,5.7-3.6,8.3-5.7c5.7-4.4,7.4-8.2,9-15c1.1-4.6-2.4-9-5.8-12.3s-7.3-6.9-7.4-11.7
		c0-3.7,2.3-6.9,3.7-10.2c7.3-17.8-13-25.7-17.1-40.6s-8.8-27.2-27.1-22.5c-4.4,1.1-8.8,2.6-13.4,2.9c-4.2,0.2-8.3-0.7-12.5-0.7
		c-11.9,0-22.8,6.5-28.5,16.9c-2.2,4.2-0.9,9.8-3,13.1c-5.5,8.7-18.5,6.6-15.8,20.8c1,5.1,3.2,10.4,1.2,15.2
		c-2.5,6.1-10.1,8-15.4,11.9c-8.7,6.4-11,19.3-6.8,29.3s13.6,17.1,23.7,20.7s21.2,4.2,32,4.2C215.5,263.3,242.6,260,264.4,246.9z"/>
	<path class="st2" d="M190.1,263.9h-0.4c-10.6,0-21.8-0.5-32.2-4.2c-11.4-4.1-20.2-11.8-24.1-21.1c-4.5-10.9-1.5-23.8,7-30.1
		c1.8-1.3,3.7-2.4,5.6-3.4c4.1-2.2,7.9-4.3,9.5-8.2c1.4-3.6,0.5-7.6-0.5-11.5c-0.3-1.1-0.6-2.3-0.8-3.4c-1.8-9.4,2.9-12,8-14.9
		c2.9-1.6,5.9-3.3,7.9-6.4c1-1.5,1.1-3.6,1.3-5.9c0.1-2.5,0.6-4.9,1.6-7.2c5.7-10.5,16.7-17.1,28.7-17.3h0.4c1.8,0,3.7,0.2,5.4,0.4
		c2.3,0.3,4.7,0.4,7,0.3c3.5-0.3,6.9-1,10.3-2c1-0.3,2-0.6,3-0.8c18.6-4.8,23.7,7.5,27.9,22.9c1.5,5.5,5.4,10.1,9.2,14.6
		c6.2,7.4,12.6,15,7.9,26.4c-0.4,1-0.9,1.9-1.4,2.9c-1.2,2.4-2.3,4.6-2.3,7.1c0,4.4,3.8,7.9,7,11.1l0.2,0.2c5,4.8,6.9,9,6,12.9
		c-1.7,7-3.4,10.9-9.3,15.4c-2.7,2.1-5.5,4-8.4,5.7l0,0C246.2,258.5,221.8,263.9,190.1,263.9z M201.8,131.8
		c-11.5,0.1-22,6.5-27.5,16.6c-0.9,2.1-1.4,4.4-1.5,6.7c-0.2,2.4-0.4,4.7-1.5,6.4c-2.1,3.4-5.3,5.2-8.3,6.9c-4.8,2.7-9,5-7.3,13.5
		c0.2,1.1,0.5,2.2,0.8,3.3c1,4.1,2,8.3,0.4,12.2c-1.8,4.4-6,6.7-10.1,8.9c-1.9,1-3.7,2.1-5.5,3.3c-8.1,5.9-10.9,18.2-6.6,28.6
		c3.7,9,12.2,16.4,23.4,20.3c10.2,3.6,21.3,4.1,31.8,4.2h0.4c31.5,0,55.7-5.3,74-16.3l0,0c2.9-1.7,5.6-3.6,8.2-5.6
		c5.6-4.3,7.2-8,8.8-14.7c0.8-3.4-1-7.2-5.6-11.6l-0.2-0.2c-3.5-3.3-7.4-7-7.4-12c0-2.8,1.2-5.3,2.4-7.7c0.5-0.9,0.9-1.9,1.3-2.8
		c4.4-10.7-1.5-17.7-7.7-25c-3.9-4.6-7.8-9.3-9.4-15.1c-4.2-15.2-8.8-26.5-26.3-22c-1,0.2-2,0.5-2.9,0.8c-3.4,1.1-7,1.8-10.5,2.1
		c-2.4,0.1-4.8-0.1-7.2-0.4c-1.8-0.2-3.6-0.4-5.3-0.4L201.8,131.8z"/>
	<path class="st3" d="M138.3,289c0,0,11.4-61.6,22.9-72s41.7-10.4,57.6-10.9s39.2,5,49.7,15.4s21.4,76.5,21.4,76.5l-21.8-2.5
		l13.9,36.8c0,0-48.2,25.8-70.5,24.3s-57.6-31.8-57.6-31.8l2-40.7L138.3,289z"/>
	<path class="st2" d="M262,285.2L262,285.2c-0.3,0-0.6-0.3-0.6-0.7c1-19.1-5.9-56.1-6-56.5c-0.1-0.3,0.1-0.7,0.4-0.8
		c0.3-0.1,0.7,0.1,0.8,0.4c0,0,0,0.1,0,0.1c0.1,0.4,7,37.6,6,56.8C262.6,284.9,262.3,285.2,262,285.2z"/>
	<path class="st2" d="M177.1,272.3c-0.3,0-0.6-0.3-0.6-0.6c0-0.3-0.4-27.6,4.5-45.4c0.1-0.3,0.4-0.5,0.8-0.4
		c0.3,0.1,0.5,0.4,0.4,0.8c-4.9,17.6-4.4,44.7-4.4,45C177.7,271.9,177.4,272.2,177.1,272.3C177.1,272.2,177.1,272.2,177.1,272.3
		L177.1,272.3z"/>
	<path class="st1" d="M227.8,213.9l2.3,23.3c0,0-1.1,13.2-15.7,10.6c-8.7-1.7-16.2-7.1-20.4-14.9c-0.7-1.4-0.2-4.4-0.3-6l-0.7-13.6
		c-0.4-6.9-1.3-13.9-1.1-20.8s0-14.1,0.3-21.2c0-0.4,0.1-0.8,0.3-1.2c0.3-0.2,0.6-0.4,0.9-0.4c2-0.4,4-0.3,5.9,0.2
		c0.1-4.8-0.5-9.7-1.7-14.3c4.1,3.1,7.3,7.2,9.2,12c4.8-0.2,9.7,0,14.4,0.7c0.6-3.3,0.1-6.8-1.3-9.8c2,2.5,3.9,5.2,5.5,7.9
		c0,0.4,6.5,1.3,6.9,0.9c1.1-1,0.8-7.7,0.9-9.3c3.5,4,5.3,9.1,6.6,14.3c1.1,4.8,1,24.5,1,29.5C240.9,209.1,235.7,215,227.8,213.9z"
		/>
	<path class="st2" d="M218.1,248.8c-1.3,0-2.5-0.1-3.8-0.4c-8.9-1.7-16.6-7.3-20.9-15.3c-0.5-1.1-0.5-2.9-0.4-4.6c0-0.6,0-1.1,0-1.7
		l-0.7-13.6c-0.1-2.3-0.3-4.6-0.5-6.9c-0.5-4.7-0.7-9.3-0.6-14c0.1-3.3,0.1-6.8,0.1-10.1c0-3.6,0-7.4,0.1-11.1
		c0-0.6,0.2-1.1,0.5-1.6c0.3-0.3,0.8-0.5,1.3-0.6c1.8-0.3,3.6-0.3,5.4,0c0-4.5-0.5-9-1.7-13.4c-0.1-0.3,0-0.5,0.3-0.7
		c0.2-0.2,0.5-0.2,0.7,0c4.1,3,7.3,7.1,9.2,11.8c4.5-0.2,9,0,13.5,0.6c0.4-3-0.1-6.1-1.4-8.8c-0.1-0.3,0-0.6,0.2-0.8
		c0.3-0.2,0.6-0.1,0.9,0.1c2,2.5,3.9,5.1,5.5,7.9c2,0.5,4,0.8,6.1,0.8c0.6-0.8,0.6-5,0.6-6.6c0-1,0-1.7,0.1-2.2
		c0-0.4,0.3-0.6,0.7-0.6c0.2,0,0.3,0.1,0.4,0.2c3,3.5,5.2,8.1,6.7,14.6c1,4.3,1,19.8,1,27.2v2.4c0.1,3.9-1.4,7.6-4.2,10.2
		c-2.4,2.1-5.6,3.1-8.8,2.7l2.2,22.5c0,0.4-0.5,5.9-4.9,9.2C223.6,248,220.9,248.8,218.1,248.8z M196,170c-0.8,0-1.6,0.1-2.5,0.2
		c-0.2,0-0.4,0.1-0.6,0.2c-0.1,0.2-0.2,0.5-0.1,0.8c-0.1,3.7-0.1,7.5-0.1,11.1c0,3.3,0,6.8-0.1,10.1c0,4.6,0.2,9.3,0.6,13.9
		c0.2,2.3,0.4,4.6,0.5,6.9l0.7,13.6c0,0.5,0,1.1,0,1.8c-0.2,1.3-0.1,2.7,0.3,3.9c4.1,7.6,11.4,13,19.9,14.6
		c4.4,0.8,7.9,0.2,10.5-1.8c3.9-3,4.4-8.2,4.4-8.2l-2.3-23.2c0-0.4,0.2-0.7,0.6-0.7c0,0,0.1,0,0.1,0c3.1,0.5,6.2-0.3,8.6-2.3
		c2.5-2.4,3.9-5.8,3.8-9.2v-2.4c0-6.8,0-22.8-1-26.9c-1.3-5.4-3-9.5-5.3-12.7v0.4c0,3.8-0.1,6.8-1.1,7.7c-0.8,0.7-6.6-0.3-7.4-0.6
		c-0.2-0.1-0.4-0.2-0.6-0.5c-1-1.6-2-3.2-3.1-4.7c0.4,2.1,0.5,4.3,0.1,6.4c-0.1,0.3-0.4,0.6-0.7,0.5c-4.7-0.7-9.5-0.9-14.3-0.7
		c-0.3,0-0.5-0.1-0.6-0.4c-1.6-4.1-4.2-7.7-7.5-10.5c0.9,4.2,1.3,8.4,1.2,12.7c0,0.4-0.3,0.6-0.7,0.6c0,0-0.1,0-0.1,0
		C198.2,170.1,197.1,170,196,170z"/>
	<path class="st2" d="M228.7,225.3c0,0-9.4,1.3-16.1-4.4s-6.4-12.2-6.4-12.2s10.9,5.9,21.5,5.1L228.7,225.3z"/>
	<path class="st2" d="M226.3,226.1c-3.3,0-9.3-0.6-14-4.7c-6.8-5.9-6.6-12.4-6.6-12.7c0-0.2,0.1-0.4,0.3-0.5c0.2-0.1,0.4-0.1,0.6,0
		c0.1,0.1,10.9,5.8,21.2,5.1c0.3,0,0.6,0.2,0.7,0.6l0.9,11.4c0,0.3-0.2,0.6-0.5,0.7C228,226,227.1,226.1,226.3,226.1z M207,209.8
		c0.6,4.2,2.8,8,6.1,10.7c5.4,4.7,12.9,4.5,15,4.3l-0.9-10.2C218.5,215,209.8,211.2,207,209.8z"/>
	<path class="st2" d="M220.2,195.7c-0.8,0-1.6-0.1-2.3-0.2c-0.3-0.1-0.5-0.4-0.5-0.7c0.1-0.3,0.4-0.5,0.7-0.5c1.3,0.2,5,0.4,6.1-1.1
		c0.8-1-3-6.9-6.9-11.8c-0.2-0.3-0.2-0.6,0.1-0.9c0,0,0,0,0,0c0.3-0.2,0.7-0.2,0.9,0.1c2.1,2.6,8.7,11.1,7,13.4
		C224.1,195.4,221.9,195.7,220.2,195.7z"/>
	<path class="st1" d="M198.5,179.7c-1.4-2.7-2.8-5.5-5.1-7.5s-5.9-2.8-8.4-1.2c-2.9,1.8-3.5,5.7-3.2,9c0.4,3.8,1.5,7.5,3.1,11
		c0.8,2.1,2,4,3.7,5.5c1.8,1.4,4.5,1.7,6.2,0.3"/>
	<path class="st2" d="M192.2,198.3c-1.4,0-2.8-0.5-3.9-1.3c-1.8-1.6-3.1-3.5-3.9-5.8c-1.6-3.5-2.7-7.3-3.1-11.2
		c-0.2-2.1-0.3-7.3,3.5-9.6c3-1.9,6.9-0.6,9.2,1.3c2.5,2.1,4,5.1,5.2,7.7c0.2,0.3,0,0.7-0.3,0.8c0,0,0,0,0,0c-0.3,0.1-0.6,0-0.8-0.2
		c-1.2-2.5-2.6-5.4-4.9-7.3c-2-1.6-5.2-2.7-7.7-1.2c-3.2,2-3,6.9-2.9,8.4c0.4,3.7,1.4,7.4,3,10.8c0.7,2,1.9,3.8,3.5,5.2
		c1.5,1.1,3.9,1.6,5.4,0.3c0.3-0.2,0.7-0.2,0.9,0.1s0.2,0.7-0.1,0.9C194.4,198,193.3,198.3,192.2,198.3z"/>
	<ellipse class="st2" cx="209" cy="180.4" rx="1.4" ry="3.5"/>
	<ellipse class="st2" cx="229.7" cy="179.6" rx="1.4" ry="3.5"/>
	<path class="st1" d="M214,236.5c0,0,6-16.9,3.1-21.6s-10.9-9.1-12.5-13.3s1.1-14.5-2.2-15.6s-5.8,8.5-3.3,16c0,0-3.8-4.7-3.8-9.1
		s2.9-10-0.2-11.4s-8,8.9-6.9,17.1s11.6,19.8,10.9,22s-57.8,57.7-63,66.8c-4.8,8.4-1.8,27.3,14.6,25.3S202.9,265.2,214,236.5z"/>
	<path class="st2" d="M148.4,313.6c-4.8,0.2-9.3-2.2-11.9-6.2c-4.1-6.2-3.7-15.4-0.9-20.2c3.2-5.6,25.4-28,43.1-46
		c9.9-10.1,19.4-19.6,19.9-20.6c0.2-0.6-1.8-3.7-3.4-6.1c-3.1-4.7-6.9-10.6-7.6-15.6c-0.9-6.7,2.1-14.9,5.2-17.3
		c0.7-0.7,1.7-0.9,2.6-0.5c2.5,1.1,1.9,4.3,1.2,7.3c-0.4,1.5-0.6,3.1-0.6,4.6c0.1,2,0.7,4,1.7,5.8c-0.7-5.3,0.4-10.6,2.4-12.6
		c0.6-0.7,1.7-1,2.6-0.7c2.4,0.8,2.3,4.8,2.2,8.9c-0.1,2.6-0.1,5.4,0.4,7c0.8,2.1,3.5,4.5,6.1,6.7c2.4,2.1,4.9,4.3,6.3,6.5
		c3,4.9-2.8,21.4-3.1,22.1l0,0c-5.4,13.8-16.8,32.3-29.7,48.3c-13.9,17.1-26.3,27.4-34.1,28.4C150,313.6,149.2,313.7,148.4,313.6z
		 M194.5,182.1c-0.4,0-0.7,0.2-1,0.4c-2.5,1.9-5.6,9.5-4.7,16.1c0.6,4.7,4.5,10.7,7.4,15.1c2.6,4.1,3.9,6.1,3.5,7.2
		c-0.3,0.9-5.8,6.5-20.2,21.1c-16.8,17-39.8,40.3-42.9,45.8c-2.6,4.5-3,13.1,0.9,18.9c2,3,5.9,6.4,13.1,5.5
		c16.2-2,51.8-47.6,62.8-75.9c1.6-4.6,5.4-17.4,3.2-21c-1.3-2.1-3.7-4.2-6.1-6.2c-2.9-2.5-5.6-4.8-6.5-7.2c-0.7-1.9-0.6-4.7-0.5-7.5
		c0.1-3.4,0.2-7.2-1.3-7.7c-0.2-0.1-0.6-0.2-1.3,0.4c-2.1,2.1-3.1,9.1-1.2,14.8c0.1,0.3,0,0.6-0.3,0.8c-0.3,0.1-0.6,0.1-0.8-0.2
		c-0.2-0.2-3.9-4.9-3.9-9.5c0.1-1.6,0.3-3.3,0.7-4.9c0.7-3.2,1-5.3-0.5-5.9C194.8,182.1,194.7,182.1,194.5,182.1L194.5,182.1z
		 M214,236.5L214,236.5z"/>
	<path class="st1" d="M227.4,235.6c0,0-6-16.9-3.1-21.6c2.6-4.3,7.4-6.7,10.6-10.5c3.4-4,2.9-10.9,4.9-15.9c0.4-1,1.2-2.2,2.3-1.8
		c0.4,0.2,0.8,0.6,1,1c1.7,2.9,2.3,6.3,2.9,9.7c0.7,2.9,1,5.8,1.1,8.8c0,2.7-0.6,5.3-1.6,7.8c-0.6,1.6-3.6,5-3.1,6.7
		c0.7,2.2,4.4,13.6,10.7,21.4c6.2,7.8,38.1,38.3,42.5,57.7c2.4,10.2,0.8,22.5-15.6,20.5S238.5,264.2,227.4,235.6z"/>
	<path class="st2" d="M283.3,320.2c-1.2,0-2.3-0.1-3.5-0.2c-16.9-2.1-42.1-56-53-84.2l0,0c-0.2-0.7-6.1-17.3-3.1-22.1
		c1.7-2.4,3.8-4.6,6.1-6.4c1.6-1.3,3.1-2.7,4.5-4.2c2-2.3,2.6-5.8,3.2-9.2c0.3-2.2,0.8-4.3,1.6-6.4c0.5-1.3,1.6-2.7,3.1-2.2
		c0.6,0.3,1,0.7,1.3,1.3c1.7,3.1,2.4,6.5,3,9.9c0.7,2.9,1,5.9,1.1,8.9c0,2.7-0.6,5.5-1.6,8c-0.3,0.7-0.8,1.4-1.2,2.1
		c-0.9,1.3-2.1,3.3-1.9,4.2c0.1,0.5,3.9,12.8,10.6,21.1c1.3,1.6,3.8,4.3,6.9,7.6c12.1,13,32.2,34.9,35.8,50.3
		c1,4.4,2.1,12.6-2.4,17.6C291.4,318.9,287.9,320.2,283.3,320.2z M228,235.3c12.6,32.5,36.8,81.5,52,83.4c5.9,0.7,10.2-0.4,12.8-3.3
		c4.1-4.5,3.1-12.2,2.1-16.4c-3.5-15.1-24.3-37.6-35.5-49.7c-3.1-3.4-5.6-6-6.9-7.7c-6.8-8.5-10.6-21-10.8-21.6
		c-0.4-1.5,0.9-3.5,2-5.2c0.4-0.6,0.8-1.2,1.1-1.9c1-2.4,1.5-5,1.5-7.6c0-2.9-0.4-5.8-1-8.7c-0.6-3.2-1.3-6.6-2.9-9.5
		c-0.1-0.3-0.3-0.5-0.6-0.7c-0.6-0.2-1.2,0.8-1.5,1.5c-0.7,2-1.2,4.1-1.5,6.2c-0.6,3.6-1.3,7.3-3.5,9.9c-1.4,1.6-3,3-4.6,4.4
		c-2.3,1.7-4.3,3.7-5.9,6.1C222.6,217.9,226.4,230.7,228,235.3z"/>
	<path class="st2" d="M204.9,338.2c0,0-61.1-57.6-86.9-46.2s-25.3,44.2-11.4,63.1s65.6,34.3,108.3,30.3s101.8-19.9,113.3-34.8
		s3-39.7-17.4-46.2S238.2,339.7,204.9,338.2z"/>
	<path class="st2" d="M201.1,386.6c-38.7,0-82.2-13.7-95.1-31.2c-8.5-11.5-11.7-27.5-8.2-40.8c2.6-10.4,10-19,19.9-23.2
		c25.5-11.3,83.2,42.1,87.4,46.1c16.8,0.7,38.8-9.9,58.3-19.2c19.1-9.1,37.2-17.8,47.5-14.5c10.3,3.3,18.3,11.4,21.5,21.7
		c2.9,9.2,1.5,18.5-3.8,25.5c-11.4,14.8-70.4,31-113.7,35C210.4,386.4,205.8,386.6,201.1,386.6z M125.7,291.1
		c-2.6-0.1-5.1,0.4-7.5,1.5c-9.6,4-16.7,12.3-19.2,22.4c-3.4,12.9-0.3,28.5,8,39.7c14.2,19.3,66.6,33.9,107.7,30.1
		c43-4,101.6-20,112.8-34.5c5.1-6.6,6.4-15.5,3.6-24.4c-3.1-9.9-10.8-17.7-20.6-20.9c-9.8-3.1-27.6,5.4-46.5,14.5
		c-19.7,9.4-42,20.1-59.1,19.3c-0.1,0-0.3-0.1-0.4-0.2C203.9,338.1,153.7,291.1,125.7,291.1z"/>
	<path class="st2" d="M167,378.7l39.5,19.1l17.7-44.7c0,0-56.6-39.7-70.5-28.3S162.6,375.3,167,378.7z"/>
	<path class="st2" d="M206.6,398.4c-0.1,0-0.2,0-0.3-0.1l-39.5-19.1l-0.1-0.1c-3.6-2.8-17.8-26.4-18-42.6c-0.1-5.5,1.5-9.7,4.7-12.3
		c14.1-11.6,69,26.6,71.3,28.3c0.2,0.2,0.3,0.5,0.2,0.7L207.1,398c-0.1,0.2-0.2,0.3-0.4,0.4C206.7,398.4,206.6,398.4,206.6,398.4z
		 M167.4,378.2l38.9,18.8l17.3-43.6c-5.1-3.5-56.6-38.6-69.4-28.1c-2.9,2.4-4.3,6.2-4.2,11.3C150.1,352.1,163.9,375.4,167.4,378.2
		L167.4,378.2z"/>
	<path class="st3" d="M222.3,393.8c0,0,27,9,52.2,5.2c28.3-4.2,36.8-16.9,22.4-28.3s-73-1.7-73-1.7L222.3,393.8z"/>
	<path class="st2" d="M261.5,400.6c-13.4-0.2-26.6-2.3-39.4-6.2c-0.3-0.1-0.4-0.4-0.4-0.6l1.5-24.8c0-0.3,0.2-0.5,0.5-0.6
		c2.4-0.4,59.1-9.6,73.5,1.9c5.7,4.5,8.1,9.4,6.8,14c-2,7.3-12.7,13-29.5,15.5C270.2,400.3,265.8,400.6,261.5,400.6z M222.9,393.4
		c3.7,1.1,28.5,8.5,51.4,5c16.3-2.4,26.7-7.7,28.5-14.5c1.1-4.1-1.1-8.5-6.4-12.7c-13.3-10.6-66.3-2.6-72-1.7L222.9,393.4z"/>
	<path class="st1" d="M208.9,392c0,0,23.3,7.4,27.8-6.1s-5.2-14.7-17.4-17.4L208.9,392z"/>
	<path class="st2" d="M222,394.6h-0.9c-4.2-0.1-8.4-0.8-12.4-2c-0.2-0.1-0.3-0.2-0.4-0.4c-0.1-0.2-0.1-0.4,0-0.5l10.4-23.5
		c0.1-0.3,0.4-0.4,0.7-0.4l2.1,0.5c7.2,1.6,13.4,3,15.8,7.2c1.5,2.6,1.4,6-0.1,10.5C235.4,391.7,230.1,394.6,222,394.6z
		 M209.8,391.5c3.8,1.1,22.5,5.5,26.3-5.9c1.4-4.1,1.4-7.2,0.2-9.5c-2.1-3.8-8.1-5.1-15-6.6l-1.6-0.4L209.8,391.5z"/>
	<path class="st1" d="M161.4,376.2c-0.1,0-0.2,0-0.3-0.1c-0.3-0.2-30.4-18.7-47.6-26.4c-0.3-0.1-0.5-0.5-0.3-0.9s0.5-0.5,0.9-0.3
		l0,0c17.3,7.8,47.5,26.3,47.8,26.5c0.3,0.2,0.4,0.6,0.2,0.9C161.8,376.1,161.6,376.2,161.4,376.2L161.4,376.2z"/>
	<path class="st3" d="M145.5,365.5c0,0-12.7-2.5-15.9,7s0,28.1,8.4,31.3s21.4-10.2,26.3-11.4s17.7-6.4,17.7-6.4L145.5,365.5z"/>
	<path class="st2" d="M140.9,404.9c-1.1,0-2.1-0.2-3.1-0.5c-9-3.5-12.1-22.5-8.8-32.1c3.4-9.9,16.5-7.4,16.6-7.4l0.2,0.1l36.6,20.5
		c0.3,0.2,0.4,0.6,0.3,0.9c-0.1,0.1-0.2,0.2-0.3,0.3c-0.5,0.2-12.9,5.1-17.8,6.4c-1.5,0.4-4,2.1-6.9,4.1
		C152.5,400.6,146.3,404.9,140.9,404.9z M141.9,365.9c-3.8,0-9.8,1-11.7,6.8c-1.5,4.5-1.6,11.4-0.1,17.6c1.6,6.8,4.6,11.5,8.2,12.9
		c5.4,2,12.7-3.1,18.7-7.2c3-2,5.5-3.8,7.3-4.3c4-1,13.1-4.5,16.4-5.8l-35.3-19.8C144.2,366,143.1,365.9,141.9,365.9L141.9,365.9z"
		/>
	<path class="st1" d="M219.3,369.1h-0.2c-0.3-0.1-0.5-0.5-0.4-0.8l4-11.7c-2.9-3-28.3-29-45.5-41.7c-0.3-0.1-0.5-0.5-0.3-0.8
		c0.1-0.3,0.5-0.5,0.8-0.3c0.1,0,0.2,0.1,0.2,0.2c18.3,13.4,45.7,41.8,45.9,42.1c0.2,0.2,0.2,0.4,0.1,0.6l-4.2,12.1
		C219.8,369,219.5,369.1,219.3,369.1z"/>
	<path class="st2" d="M220.4,201.9c-3.2,0-6.4-0.9-9.2-2.5c-0.3-0.2-0.4-0.6-0.2-0.9c0,0,0,0,0,0c0.2-0.3,0.6-0.4,0.9-0.2
		c5,2.9,11.2,3,16.2,0.2c0.3-0.2,0.7-0.1,0.8,0.2s0.1,0.7-0.2,0.8l0,0C226.2,201.1,223.3,201.9,220.4,201.9z"/>
</g>
<g id="Bubble">
	<path class="st1" d="M287.5,113.5c-2.9,1.2-5.5,3.2-7.5,5.7c-9.1,11.7-3.2,24.9,4,35.8c7.8,11.8,26.1,10.7,38.6,6.1
		c5.9,7.7,17.8,10.9,28.2,8.4c9.6-2.4,17.7-8.9,22.1-17.8c2.4,4.2,9,5.8,14.3,4.4c18.5-4.8,21.3-28.2,7.3-38.3
		c-3.8-2.8-10.2-3.6-13.8-0.5c-0.9-5.1-5.8-10.7-11.5-12.5c-1.7-0.6-16.9-1.1-15.6,0.8c-4.3-6.1-12.9-9.5-21.2-9.7
		c-8.3,0.1-16.4,2.5-23.3,7c-3.9,2.3-7.2,5.4-9.8,9.1C295.4,111.4,291.3,112,287.5,113.5z"/>
	<path class="st0" d="M343.8,171c-8.5,0-16.7-3.4-21.3-9.1c-13.6,4.9-31.4,4.9-39-6.5c-6.4-9.7-13.9-24.1-4-36.7
		c2-2.6,4.7-4.6,7.7-5.9l0,0c3.8-1.5,7.9-2.1,11.9-1.8c2.6-3.6,5.9-6.7,9.8-8.9c7.1-4.6,15.3-7,23.7-7.1c8.7,0.1,16.7,3.6,21.2,9.1
		c0.8-0.4,2.6-0.8,7.7-0.7c2.8-0.1,5.5,0.1,8.2,0.5c5.5,1.8,10.4,6.8,11.8,12c4-2.6,10-1.5,13.7,1.2c7,5.2,10.4,13.9,8.7,22.4
		c-1.5,8.4-7.9,15.2-16.2,17.2c-4.9,1.3-11.4,0.2-14.4-3.7c-4.6,8.6-12.6,14.8-22,17.1C348.7,170.7,346.2,171,343.8,171z
		 M322.7,160.4c0.2,0,0.4,0.1,0.6,0.3c5.5,7.2,17.1,10.6,27.5,8.1c9.4-2.3,17.4-8.7,21.7-17.4c0.1-0.2,0.3-0.4,0.6-0.4
		c0.3,0,0.5,0.1,0.6,0.4c2.3,4.1,8.8,5.3,13.6,4.1c7.8-1.9,13.8-8.2,15.2-16.1c1.5-8-1.6-16.2-8.1-21c-3.5-2.6-9.5-3.4-12.9-0.6
		c-0.2,0.2-0.5,0.2-0.7,0.1c-0.2-0.1-0.4-0.3-0.5-0.5c-0.9-5-5.7-10.3-11-12c-1.6-0.5-12.8-0.8-14.7,0c0,0.2-0.1,0.5-0.3,0.6
		c-0.3,0.2-0.7,0.2-1-0.1c0,0,0,0,0,0c-4-5.6-12.1-9.2-20.7-9.4c-8.1,0.1-16.1,2.4-22.9,6.8c-3.8,2.2-7.1,5.2-9.5,8.8
		c-0.1,0.2-0.4,0.3-0.6,0.3c-4-0.4-8,0.2-11.7,1.6c-2.8,1.2-5.3,3.1-7.2,5.5c-9.2,11.7-2.7,24.9,4,35c7.2,10.9,24.7,10.7,37.8,5.8
		C322.5,160.3,322.6,160.4,322.7,160.4L322.7,160.4z"/>
	<path class="st1" d="M314.2,175c1.6-0.6,3.4-0.7,5.1-0.4c2,0.2,4.2,0.9,5.3,2.6s0.2,4.6-1.9,4.7c2.9-1.4,6.6,0.7,7.4,3.8
		c1.7,6.4-6.6,10.4-12,10c-2.7-0.2-5.3-1.5-8-1.1c-4.9,0.7-8.4,1.2-12.1-3.2c-2.7-3.2-1.7-7.6,0.5-10.8c1.4-2.2,3.6-3.7,6.1-4.1
		c0.8-0.1,6.8,0.7,6.4,2.1C311.4,176.9,312.6,175.6,314.2,175z"/>
	<path class="st0" d="M318.8,196.5c-0.3,0-0.5,0-0.8,0c-1.1-0.1-2.2-0.3-3.3-0.6c-1.5-0.5-3-0.6-4.6-0.5c-5,0.7-8.8,1.2-12.7-3.4
		c-3.1-3.7-1.7-8.6,0.4-11.7c1.5-2.3,3.9-3.9,6.6-4.4c0.7-0.1,4.6,0.3,6.3,1.4c0.7-1.3,1.8-2.3,3.1-2.8l0,0c1.7-0.6,3.6-0.8,5.4-0.5
		c2.9,0.3,4.8,1.3,5.8,2.9c0.7,1.2,0.8,2.7,0.2,3.9c0.6,0.1,1.3,0.3,1.9,0.5c1.8,0.8,3.1,2.3,3.6,4.2c0.6,2.3,0,4.7-1.5,6.4
		C326.8,195,322.2,196.5,318.8,196.5z M311.1,193.9c1.4,0,2.7,0.3,4,0.6c1,0.3,2,0.5,3.1,0.6c3.1,0.2,7.6-1.1,10.1-4
		c1.3-1.4,1.7-3.3,1.2-5.2c-0.4-1.4-1.5-2.6-2.9-3.2c-0.8-0.4-1.6-0.5-2.5-0.4c-0.4,0.3-0.9,0.4-1.4,0.4c-0.3,0-0.6-0.2-0.7-0.5
		c-0.1-0.3,0.1-0.6,0.4-0.8c0.4-0.2,0.8-0.3,1.1-0.4c0.2-0.2,0.3-0.4,0.5-0.6c0.5-0.8,0.5-1.9,0-2.7c-0.8-1.2-2.4-2-4.8-2.3
		c-1.6-0.3-3.2-0.2-4.8,0.4l0,0c-1.4,0.6-2.4,1.7-2.8,3.1c-0.1,0.4-0.5,0.6-0.9,0.5c-0.4-0.1-0.6-0.5-0.5-0.9c0,0,0,0,0,0
		c-0.4-0.6-4.8-1.3-5.6-1.2c-2.4,0.4-4.5,1.8-5.7,3.8c-1.8,2.7-3.1,6.9-0.5,10c3.4,4.1,6.6,3.6,11.4,3
		C310.3,193.9,310.7,193.9,311.1,193.9z M314.2,175L314.2,175z"/>
	<path class="st1" d="M287.6,196.1c-1.3-0.6-2.8-0.6-4.2-0.2c-1.4,0.4-2.4,1.7-2.5,3.1c0,1.4,1.1,2.5,2.5,2.5c0.1,0,0.2,0,0.3,0
		c-3.3,2.1,3.8,7.7,6.9,1.8C292.2,200.2,290.6,197.2,287.6,196.1z"/>
	<path class="st0" d="M286.8,206.6c-0.2,0-0.4,0-0.6,0c-1.8-0.2-3.3-1.4-3.9-3.1c-0.1-0.5-0.1-1,0.1-1.4c-0.3-0.1-0.6-0.3-0.9-0.5
		c-0.8-0.6-1.2-1.6-1.2-2.6c0.1-1.8,1.3-3.3,2.9-3.8c1.5-0.4,3.2-0.4,4.6,0.2l0,0c1.7,0.6,3,1.9,3.7,3.5c0.6,1.5,0.4,3.2-0.4,4.6
		C290.5,205.3,288.8,206.5,286.8,206.6z M283.8,200.8c0.3,0,0.5,0.2,0.6,0.4c0.1,0.3,0,0.7-0.3,0.9c-0.4,0.2-0.6,0.6-0.5,1.1
		c0.5,1.1,1.5,1.9,2.8,2c1.5,0.2,2.8-0.6,3.6-2.3c0.6-1,0.7-2.3,0.3-3.4c-0.5-1.3-1.6-2.3-2.9-2.7l0,0c-1.2-0.5-2.5-0.6-3.7-0.2
		c-1.1,0.3-1.9,1.3-2,2.5c0,0.6,0.3,1.1,0.7,1.4c0.3,0.3,0.8,0.4,1.2,0.4L283.8,200.8z"/>
</g>
<g id="Plant">
	<path class="st0" d="M366.1,290.1c0.2-3.2-0.5-6.3-2-9.2c-1.2-2-3.1-3.7-4.1-5.8c-1.8-3.7-0.5-8.1-0.9-12.2
		c-0.4-3.4-1.9-6.6-4.3-9.1c-2.1-2.2-4.9-3.6-6.9-5.9c-3.4-3.7-4.3-8.9-6.2-13.5c-2.7-6.5-7.4-12-13.4-15.8c3.6,7.4-4.7,16.7-0.9,24
		c1.2,2.3,3.5,4,4.4,6.4c2.1,5.9-4.9,12.3-2.7,18.2c1.1,2.9,4.3,4.6,5.7,7.4c2,3.8,0.4,8.3,0.6,12.5c0.2,5.8,3.8,11,8,15.1
		c2.6,2.5,5.5,4.7,8.4,7c3.4,2.7,4.8,5.6,7.8,1.2C363.7,304.5,366,297.4,366.1,290.1z"/>
	<path class="st0" d="M369.9,293.4c-1.1-4.5-1.9-9.4,0-13.7c2.1-4.8,7.3-8.2,7.9-13.4c0.4-3.4-1.3-6.9-0.7-10.2s3.4-5.7,5.7-8.1
		c5.2-5.7,8.3-13.1,8.8-20.8c3.3,4.3,6.6,8.7,8.4,13.9s1.8,11.1-1.2,15.6c-0.9,1-1.6,2.2-2.1,3.5c-1,3.3,1.8,6.4,3.3,9.6
		c1.8,3.7,1.4,8-1,11.3c-3,3.7-8.7,5.2-10.2,9.7c-0.4,1.7-0.5,3.4-0.5,5.1c-0.5,5.8-5.1,11.5-10.9,12.9c-3.5,0.9-3.5-0.5-4.1-3.5
		C372.4,301.3,370.9,297.4,369.9,293.4z"/>
	<path class="st0" d="M358.7,261c-2.5-8.7-3.5-17.7-6.1-26.3c-2.2-6.7-5-13.3-8.2-19.6l10.8,4.5c3.5,1.4,7.2,3.2,8.8,6.5
		c2.8,5.9-2.2,13.4,0.7,19.2c1,2,2.9,3.5,4.2,5.4c3.2,4.4,2.7,10.5,0.9,15.7c-0.8,2.2-4,13.7-6.9,10.5c-1.2-1.3-1.3-6-1.8-7.8
		C360.4,266.4,359.5,263.7,358.7,261z"/>
	<path class="st0" d="M364.6,376.1c-2.1-14.2-8.9-64.1-8.9-64.6l1.9-0.2c0.1,0.5,6.8,50.4,8.9,64.5L364.6,376.1z"/>
	<path class="st0" d="M367.1,389.5h-1.9c0.1-16.8,7.1-81.1,11.2-85.5l1.4,1.3C375.1,308.1,367.3,366.5,367.1,389.5z"/>
	<path class="st0" d="M370.7,386.3l-1.9-0.1c1.6-36.2-6.1-112.4-6.2-113.2l1.9-0.2C364.6,273.6,372.4,349.9,370.7,386.3z"/>
	<path class="st1" d="M346.2,342h40l-2.8,40.5c-0.5,7-6.3,12.4-13.4,12.4h-7.7c-7,0-12.8-5.4-13.3-12.4L346.2,342z"/>
	<path class="st0" d="M370,395.6h-7.7c-7.4,0-13.5-5.7-14-13.1l-2.8-40.5c0-0.2,0.1-0.4,0.2-0.5c0.1-0.1,0.3-0.2,0.5-0.2h40
		c0.2,0,0.4,0.1,0.5,0.2c0.1,0.1,0.2,0.3,0.2,0.5l-2.8,40.5C383.6,389.9,377.4,395.6,370,395.6z M346.9,342.7l2.8,39.8
		c0.5,6.6,6,11.8,12.6,11.8h7.7c6.6,0,12.2-5.2,12.6-11.8l2.8-39.8H346.9z"/>
</g>
</svg>
